# xmcd
#
# Track frame offsets: 
#        150
#        13307
#        60422
#        84010
#        109607
#        129145
#        155729
#        178803
#
# Disc length: 3252 seconds
#
# Revision: 0
# Processed by: cddbd v1.4PL0 Copyright (c) Steve Scherf et al.
# Submitted via: ExactAudioCopy v0.90b4
#
DISCID=590cb208
DTITLE=Johnny Winter - Live im Anker CD 1
DYEAR=2003
DGENRE=Blues
TTITLE0=Check
TTITLE1=Hideaway (instr)
TTITLE2=Sugar Coated Love
TTITLE3=She Likes To Boogie Real Low
TTITLE4=Goodtime Charlie
TTITLE5=Sick and Tired
TTITLE6=Start Over Again
TTITLE7=Black Jack
EXTD=
EXTT0=
EXTT1=
EXTT2=
EXTT3=
EXTT4=
EXTT5=
EXTT6=
EXTT7=
PLAYORDER=
